<?xml version="1.0" encoding="UTF-8"?>
<svg id="_레이어_1" data-name="레이어 1" xmlns="http://www.w3.org/2000/svg" xmlns:xlink="http://www.w3.org/1999/xlink" viewBox="0 0 1920 1920">
  <defs>
    <radialGradient id="_무제_그라디언트_25" data-name="무제 그라디언트 25" cx="665.38" cy="884.6" fx="665.38" fy="884.6" r="138.16" gradientUnits="userSpaceOnUse">
      <stop offset="0" stop-color="#ff3e4e"/>
      <stop offset=".17" stop-color="#ff3e4e" stop-opacity=".99"/>
      <stop offset=".3" stop-color="#ff3e4e" stop-opacity=".95"/>
      <stop offset=".42" stop-color="#ff3e4e" stop-opacity=".88"/>
      <stop offset=".53" stop-color="#ff3e4e" stop-opacity=".79"/>
      <stop offset=".63" stop-color="#ff3e4e" stop-opacity=".67"/>
      <stop offset=".74" stop-color="#ff3e4e" stop-opacity=".52"/>
      <stop offset=".84" stop-color="#ff3e4e" stop-opacity=".35"/>
      <stop offset=".93" stop-color="#ff3e4e" stop-opacity=".16"/>
      <stop offset="1" stop-color="#ff3e4e" stop-opacity="0"/>
    </radialGradient>
    <radialGradient id="_무제_그라디언트_25-2" data-name="무제 그라디언트 25" cx="1220.94" cy="746.44" fx="1220.94" fy="746.44" r="138.16" xlink:href="#_무제_그라디언트_25"/>
    <radialGradient id="_무제_그라디언트_25-3" data-name="무제 그라디언트 25" cx="1017.92" cy="754.08" fx="1017.92" fy="754.08" r="52.54" gradientTransform="translate(-406.7 -7.9) scale(1.37 1)" xlink:href="#_무제_그라디언트_25"/>
  </defs>
  <path d="M671.3,214.68L490.75,38.23c-142.38-40.63-219.04,21.45-224.93,25.64s-85.34,59.23-97.94,204.14l110.18,234.18s39.7-109.92,164.63-197.3c139.71-89.17,228.61-90.22,228.61-90.22Z" fill="#a2d6ac" stroke="#000" stroke-miterlimit="10" stroke-width="13"/>
  <path d="M525.44,246.07l170.49-47.84,58.3-8.25,92.09,3.01,119.15,25.03,65.08,32.2,64.22,41.84,44.76,51.57s65.19,65.19,64.22,68.11c-.97,2.92,18.92,37.15,20.65,38.52s29.51,51.93,29.51,51.93l11.83,54.7,19.14,39.44,43.83,75.4,26.81,48.43,19.85,65.93,5.43,66.99,26.65-5.83,62.66,7.83,81,17.73,61.88,6.14,45.77-20.46,41.01-34.06,34.54-23.32s27.58,3.85,28.22,5.23,22.05,15.01,23.02,16.95,12.65,24.32,9.73,27.24-3.89,38.92-2.92,43.78c.97,4.86-15.11,74.88-15.11,74.88l-55.92,95.39-88.91,79.86-56.77,35.04-85.7,28.71-68.72,4.74-64.31-10.79-40.58-14.6,59.49,80.31,39.8,103.34,33.28,127.32,43.57,91.67-3.64,43.46-28.15,33.14-43.89,12.69-51.57,7.78-49.62-9.73-40.18-6.92-71.34-27.54-70.93-48.05-71.99-81.05-44.63-74.51-26.08-57.27-3.71,37.51,7.89,112.96-25.41,163.36-53.51,116.76-75.39,69.46-46.23,13.25-31.9-24.34-54.83-120.13-67.08-113.74-17.82-79.63,1.35-107.77-35.03,52.54-72.97,88.54-100.21,77.84-87.57,36-106.74,11.94-82.98-5.45-69.08-25.94s-11.03-41.62-12.32-43.68c-1.3-2.05,12.32-41.95,12.32-41.95l63.73-49.13,56.6-76.18,16.53-77.49,28.54-71.98,53.29-68.88,67.91-58.98-67.16-80.35-66.12-137.97-25.32-103.31-7.67-151.09,43.35-180.98,45.99-99.04,77.99-90.51,85.62-65.65,82.9-42.1Z" fill="#ff606d" stroke-width="0"/>
  <ellipse cx="794.65" cy="529.19" rx="20.3" ry="30.18" transform="translate(103.23 1187.57) rotate(-77.26)" fill="none" stroke="#000" stroke-miterlimit="10" stroke-width="13"/>
  <ellipse cx="1045.42" cy="478.57" rx="30.18" ry="20.3" transform="translate(-26.78 893.67) rotate(-45.76)" fill="none" stroke="#000" stroke-miterlimit="10" stroke-width="13"/>
  <path d="M1239.74,1076.65s179.01-155.08,137.38-293.5c-41.63-138.42-99.92-174.85-119.69-261.24-19.77-86.39-197.75-385.09-558.9-323.68S220.81,489.65,195.84,713.42c-24.98,223.77,84.3,419.44,162.36,479.8" fill="none" stroke="#000" stroke-linecap="round" stroke-linejoin="round" stroke-width="13"/>
  <path d="M1309.47,1182.81s166.53,95.75,345.54-54.12c179.01-149.87,150.81-291.5,120.73-315.36-30.18-23.94-52.04-7.29-65.57,4.16-18.84,15.94-56.2,57.24-100.96,62.45-44.75,5.2-136.6-26.33-157.16-30.18-33.31-6.24-68.66.17-68.66.17" fill="none" stroke="#000" stroke-linecap="round" stroke-linejoin="round" stroke-width="13"/>
  <path d="M1075.3,1160.96s112.4-72.85,207.64,0c95.23,72.85,117.09,142.59,143.11,238.34,26.02,95.75,40.59,142.59,61.41,183.18,20.82,40.59,0,91.59-72.85,99.92-72.85,8.33-199.83-7.29-295.58-103.04-95.75-95.75-125.93-203.99-125.93-203.99" fill="none" stroke="#000" stroke-linecap="round" stroke-linejoin="round" stroke-width="13"/>
  <path d="M1011.81,1259.83s-30.18,65.57-16.65,198.79c13.53,133.22-28.1,295.58-96.79,375.72-68.69,80.14-120.73,66.61-138.42,28.1-17.69-38.51-33.31-96.79-89.51-172.77-56.2-75.98-59.32-215.44-27.06-309.11,32.26-93.67,108.24-168.61,193.59-157.16" fill="none" stroke="#000" stroke-linecap="round" stroke-linejoin="round" stroke-width="13"/>
  <path d="M648.58,1217.16s-154.04-134.26-311.19-4.16c-157.16,130.1-122.79,218.91-145.18,261.41-22.39,42.5-80.24,98.84-100.45,113.27-29.14,20.82-38.51,36.43-28.1,79.1,7.66,31.39,71.68,52.64,160.28,49.96,34.35-1.04,191.37-7.56,304.95-142.59,93.67-111.36,99.92-136.34,99.92-136.34" fill="none" stroke="#000" stroke-linecap="round" stroke-linejoin="round" stroke-width="13"/>
  <path d="M861.14,657.31c-3.26-19.07-22.57-20.37-22.57-20.37h-196.41s-19.31,1.3-22.57,20.37c-3.25,19.06,20.87,111.68,120.61,111.68h0c.05,0,.11,0,.16,0s.11,0,.16,0h0c94.88,0,123.86-92.63,120.61-111.69Z" fill="#fff" stroke="#000" stroke-miterlimit="10" stroke-width="9"/>
  <path d="M830.74,674.98c-2.25-11.57-15.61-12.36-15.61-12.36h-135.86s-13.36.79-15.61,12.36c-2.25,11.56,14.43,67.74,83.43,67.74h0s.07,0,.11,0,.07,0,.11,0h0c65.63,0,85.68-56.18,83.43-67.74Z" stroke-width="0"/>
  <circle cx="806.69" cy="681.52" r="25.69" fill="#fff" stroke-width="0"/>
  <path d="M1215.3,492.63c-11.35-12.89-26.54-4.86-26.54-4.86l-74.04,45.71-.24.15-74.04,45.71s-13.98,9.99-7.54,25.91c6.43,15.91,67.83,74.61,143.15,28.1h0s.08-.05.12-.07.08-.05.12-.07h0c71.65-44.24,50.34-127.7,39-140.58Z" fill="#fff" stroke="#000" stroke-miterlimit="10" stroke-width="9"/>
  <path d="M1200.59,520.16c-7.09-7.69-17.55-2.05-17.55-2.05l-51.21,31.62-.17.1-51.21,31.62s-9.72,6.82-6.03,16.61c3.69,9.78,42.48,44.42,94.58,12.25h0s.06-.03.08-.05.06-.03.08-.05h0c49.56-30.6,38.51-82.37,31.42-90.05Z" stroke-width="0"/>
  <circle cx="1185.48" cy="536.3" r="22.8" fill="#fff" stroke-width="0"/>
  <path d="M931.74,488.19s9.19,37.64-37.47,54.7" fill="none" stroke="#000" stroke-linecap="round" stroke-miterlimit="10" stroke-width="13"/>
  <path d="M961.93,511.91s7.29,11.45,20.82,17.69" fill="none" stroke="#000" stroke-linecap="round" stroke-miterlimit="10" stroke-width="13"/>
  <circle cx="665.38" cy="884.6" r="138.16" fill="url(#_무제_그라디언트_25)" stroke-width="0"/>
  <circle cx="609.92" cy="811.62" r="11.68" fill="#fff" stroke-width="0"/>
  <circle cx="1220.94" cy="746.44" r="138.16" fill="url(#_무제_그라디언트_25-2)" stroke-width="0"/>
  <circle cx="1249.15" cy="651.09" r="11.68" fill="#fff" stroke-width="0"/>
  <path d="M632.96,893.47s48.93,36.77,26.03,62.62c-22.9,25.85-60.37,26.89-60.37,26.89" fill="none" stroke="#000" stroke-linecap="round" stroke-linejoin="round" stroke-width="9"/>
  <path d="M677.55,877.55s-5.72,51.31,22.2,60.67c27.93,9.37,52.04-30.34,52.04-30.34" fill="none" stroke="#000" stroke-linecap="round" stroke-linejoin="round" stroke-width="9"/>
  <path d="M751.79,954.01s-33.96-4.68-37.36,17.35c-3.4,22.03,11.17,38.68,22.62,47.01" fill="none" stroke="#000" stroke-linecap="round" stroke-linejoin="round" stroke-width="9"/>
  <path d="M631.86,1013.69s24.77-41.11,45.2-30.7c20.43,10.41,15.23,55.16,15.23,55.16" fill="none" stroke="#000" stroke-linecap="round" stroke-linejoin="round" stroke-width="9"/>
  <path d="M783.44,1006.69s9.43,21.29-2.97,25.63c-12.4,4.34-25.04-2.27-25.04-2.27" fill="none" stroke="#000" stroke-linecap="round" stroke-linejoin="round" stroke-width="6"/>
  <path d="M801.2,1009.67s-11.42,15.98-3.88,24.27c7.54,8.29,22.91-.42,22.91-.42" fill="none" stroke="#000" stroke-linecap="round" stroke-linejoin="round" stroke-width="6"/>
  <path d="M811.68,1048.84s-10.41-7.86-15.63-1.17c-5.22,6.69-3.47,14.92-1.21,19.81" fill="none" stroke="#000" stroke-linecap="round" stroke-linejoin="round" stroke-width="6"/>
  <path d="M760.77,1046.41s15.85-9.06,20.71-1.81c4.86,7.25-5.17,21.15-5.17,21.15" fill="none" stroke="#000" stroke-linecap="round" stroke-linejoin="round" stroke-width="6"/>
  <g>
    <path d="M1153.1,785.26c-17.85,28.75-36.07,49.5-46.03,59.96-1.22,1.28.28,3.27,1.85,2.46,12.82-6.64,37.84-18.34,70.43-27.46,48.11-13.46,45.07-41.56,35.74-54.16-9.5-12.48-35.63-23.23-61.99,19.2Z" opacity=".96" stroke-width="0"/>
    <path d="M1272.56,835.19c-31.54,29.52-60.8,48.96-75.57,58-1.52.93-.55,3.27,1.19,2.85,16.81-4.13,51.22-11.24,94.39-12.87,61.55-2.33,66.96-35.88,59.91-53.14-7.3-17.16-34.94-36.93-79.91,5.16Z" opacity=".96" stroke-width="0"/>
    <path d="M1288.94,644.5c-21.49,45.78-44.89,79.39-56.47,94.82-1.08,1.43.72,3.25,2.16,2.2,15.6-11.34,49.57-34.23,95.67-55.01,64.22-28.95,55.83-66.67,41.1-81.85-14.95-14.96-52.54-23.92-82.47,39.84Z" opacity=".96" stroke-width="0"/>
    <circle cx="1119.53" cy="757.65" r="11.45" stroke-width="0"/>
    <circle cx="1127.86" cy="880.47" r="11.45" stroke-width="0"/>
    <circle cx="1327.69" cy="905.44" r="11.45" stroke-width="0"/>
  </g>
  <ellipse cx="988.23" cy="746.18" rx="72" ry="52.54" transform="translate(-204.99 415.09) rotate(-21.55)" fill="url(#_무제_그라디언트_25-3)" stroke-width="0"/>
  <path d="M969.14,849.76s21.86-7.29,29.14-39.55c7.29-32.26,39.55-36.43,55.7-26.19,21.59,13.68,37.97,59.5-30.72,107.37,0,0,25.47-22.41,52.56,5.2,26.54,27.06,13.01,56.2,11.97,58.28-2.71,5.43-13.53,23.94-40.59,20.82-27.06-3.12-16.65-21.86-57.24-19.77" fill="none" stroke="#000" stroke-linecap="round" stroke-linejoin="round" stroke-width="13"/>
  <g>
    <path d="M1743.52,658.75s-140.5-43.41-165.53,46.16,102.98,75.5,129.47,82.9c26.49,7.4,127.7,85.52,152.72-4.05,25.03-89.57-116.67-125-116.67-125Z" fill="#fff6ba" stroke="#000" stroke-linecap="round" stroke-linejoin="round" stroke-width="13"/>
    <path d="M1799.49,634.93c7.13-25.53-7.78-52.01-33.31-59.15-25.53-7.13-52.01,7.78-59.15,33.31-.32,1.14-.58,2.27-.81,3.41-2.36,6.6-6.51,22.39-.35,39.87,4.91,13.96.85,29.99-3.11,40.45-2.51,3.2-4.45,6.94-5.61,11.1-4.76,17.02,5.19,34.67,22.21,39.43s34.67-5.19,39.43-22.21c1.16-4.16,1.44-8.36.96-12.4,2.04-11,6.87-26.81,18.3-36.21,14.32-11.76,18.96-27.42,20.36-34.28.39-1.09.76-2.2,1.08-3.34Z" fill="#fff6ba" stroke="#000" stroke-linecap="round" stroke-linejoin="round" stroke-width="13"/>
  </g>
</svg>