<?xml version="1.0" encoding="UTF-8"?>
<svg id="_레이어_1" data-name="레이어 1" xmlns="http://www.w3.org/2000/svg" viewBox="0 0 1920 1920">
  <path d="M1026.37,547.48c26.25,42.14,98,54.6,148.79,33.12,50.79-21.49,80.5-34.28,87.14-81.44,6.64-47.16-6.53-94.66-22.85-140.15-7.51-20.94-15.56-44.19-4.21-63.89,17.7-30.73,75.99-31.23,103.99-6.39,28,24.84,29.92,63.77,18.26,96.45-11.66,32.68-34.6,61.61-51.88,92.51-18.09,32.34-29.96,32.46-39.38,67.27-7.37,27.24-12.28,58.61,8.32,80.63,33.39,35.7,110.08,13.84,130.01-28.27,13.06-27.6,9.61-59.36,24.19-86.41,4.31-7.99,10.51-15.7,19.76-19.85,23.8-10.68,53.88,9.22,58.04,31.48,4.16,22.27-8.59,44.02-20.5,64.25-11.91,20.23-23.65,42.66-17.44,64.59,11.42,40.31,79.02,64.3,71,105.17-3.83,19.51-24.48,33.24-36.07,50.48-32.15,47.8,12.15,88.82,74.76,105.53,62.61,16.71,53.18,12.51,82.37,5.21,8.64-2.16,28.15-5.21,36.48-21.87,7.73-15.47,17.18-28.63,29.99-40.38,27.72-25.45,85.68-13.05,101.34,18.76,15.65,31.81-7.72,70.94-44.99,85.65-34.68,13.68-60.81,9.16-98.83,14.16-39.62,5.21-41.71,4.17-74.06,15.45-33.7,11.75-71.69,24.57-82.32,53.44-14.79,40.15,29.84,77.47,71.89,100.61,42.04,23.13,91.69,50.59,93.09,92.57.57,17-12.06,36.57-32.45,37.07-17.1.42-29.91-12.11-44.06-20.13-40.03-22.69-93.94-9.55-139.41,4.3-43.93,13.39-90.98,28.8-116.12,61.69-40.02,52.35-5.13,42.81,45.44,88.38,50.57,45.57,116.67,22.83,154.35,76.37,4.89,6.95,9.32,14.34,10.68,22.32,5.79,34.17-49.72,56.71-88.08,43.77-38.37-12.94-60.68-45.69-80.08-76.17-34.9-54.85-69.81,27.94-104.71-26.91-23.27-36.56-65.93-79.46-111.5-63.06-27.16,9.78-37.83,36.59-45.58,60.36-4.48,13.74,1.77,24.17,6.01,31.46,18.39,31.65,58.28,49.51,81.2,78.35,22.91,28.83,24.9,75.72-12.34,90.97-27.99,11.46-63.11-2.61-80.85-24-17.74-21.39-22.77-48.08-28.85-73.58-12.82-53.73-32.32-26.06-58.1-76.44-31.92-62.39-94.23-73.02-174.52-62.11-28.07,3.82-52.77,17.16-76.54,30.18-53.33,29.23-111.23,63.92-123.39,116.16-57.09-16.3-67.22-93.81-15.67-119.97,19.32-9.81,42.61-12.35,63.46-19.65,20.85-7.3,41.02-22.73,39.28-41.53-1.12-12.04-10.95-22.18-21.08-30.8-75.81-64.56-186.18-89.21-284.83-126.61-23.28-8.83-48.09-20.24-56.94-40.25-22.82-51.59,77.02-94.69,65.71-148.86-6.57-31.47-47.23-48.35-83.23-59.28-54.21-16.47-47.64-16.12-80.01-27.45-20.85-7.3-21.9-8.34-33.37-8.34-35.33,0-39.45,20.13-71.14,34.17-31.69,14.04-76.43,17.57-98.89-5.76-18.43-19.15-12.34-49.2,7.48-67.36,19.82-18.16,49.76-26.3,78.97-29.43,111.95-11.97,68.59,49.63,180.88,54.28,13.22.55,10.09,1.59,23.63-3.01,17.19-5.84,30.35-17.85,42.38-29.7,43-42.32,76.83-101.63,48.93-151.99-8.69-15.69-22.94-29.36-27.98-46.13-11.3-37.63,27.08-72.58,65.65-94.28,12.76-7.18,26.86-14.08,42.25-13.91,15.39.16,31.57,10.3,30.49,23.1-1.81,21.42-42.6,24.63-52.21,44.56-6.42,13.33,5.51,29.3,21.83,33.9s34.66,0,48.89-8.08c39-22.17,51.18-66.76,44.23-105.69-6.96-38.93-29.2-74.57-46.22-111.28-13.04-28.12-22.86-60.56-6.84-87.59,16.02-27.02,68.9-37.75,87.77-12.03,12.5,17.04,4.04,38.77-1.33,58.24-10.95,39.67-5.66,84.98,26.87,115.34,32.53,30.36,96.45,37.68,129.85,7.99,19.51-17.34,25.18-42.44,40.53-62.48,15.35-20.04,51.43-34.03,71.45-17.11,13.46,11.38,11.39,29.78,8.4,45.57-2.98,15.79-.59,30.43,8.51,45.54,5.83,9.67,13.13-6.69,36.51-14.18,7.91-2.48,13.97,1.26,17.81,12.44Z" stroke-width="0"/>
  <ellipse cx="625" cy="391" rx="20" ry="27" fill="#c4c4c4" stroke-width="0"/>
  <ellipse cx="1262" cy="321" rx="20" ry="27" fill="#c4c4c4" stroke-width="0"/>
  <ellipse cx="1760" cy="874" rx="27" ry="20" transform="translate(-109.55 268.8) rotate(-8.47)" fill="#c4c4c4" stroke-width="0"/>
  <ellipse cx="1653.64" cy="1233.59" rx="23.71" ry="17.57" transform="translate(-163.68 257.06) rotate(-8.47)" fill="#c4c4c4" stroke-width="0"/>
  <ellipse cx="1526" cy="1514" rx="27" ry="20" transform="translate(-206.38 241.31) rotate(-8.47)" fill="#c4c4c4" stroke-width="0"/>
  <ellipse cx="1198" cy="1610" rx="27" ry="20" transform="translate(-224.1 194.04) rotate(-8.47)" fill="#c4c4c4" stroke-width="0"/>
  <ellipse cx="667" cy="1474" rx="27" ry="20" transform="translate(-696.88 603.72) rotate(-33.11)" fill="#c4c4c4" stroke-width="0"/>
  <ellipse cx="131" cy="919" rx="27" ry="20" transform="translate(-480.75 220.8) rotate(-33.11)" fill="#c4c4c4" stroke-width="0"/>
  <ellipse cx="554" cy="603" rx="21.29" ry="15.77" transform="translate(-239.44 400.55) rotate(-33.11)" fill="#c4c4c4" stroke-width="0"/>
  <ellipse cx="921.18" cy="479.77" rx="22.69" ry="16.81" transform="translate(-89.86 717.55) rotate(-40.75)" fill="#c4c4c4" stroke-width="0"/>
  <ellipse cx="1458" cy="528" rx="27" ry="20" transform="translate(8.78 1079.63) rotate(-40.75)" fill="#c4c4c4" stroke-width="0"/>
</svg>