<?xml version="1.0" encoding="UTF-8"?>
<svg id="_레이어_1" data-name="레이어_1" xmlns="http://www.w3.org/2000/svg" viewBox="0 0 1920 1920">
  <path d="M925.39,556.33c-297,0-219,274-219,274-13.33-36.49-153-37-142.5,115.8,13.5,196.41,171.67,295.99,171.67,295.99v91.55c0,16.57,13.43,30,30,30h357.33c16.57,0,30-13.43,30-30v-91.55c201-113.23,182.67-316.04,182.67-316.04,88.83-206.75-113.17-369.75-410.17-369.75Z" fill="#af3737" stroke="#000" stroke-linecap="round" stroke-linejoin="round" stroke-width="15"/>
  <path d="M1293.89,936.83s-326,56-499-112" fill="none" stroke="#000" stroke-linecap="round" stroke-linejoin="round" stroke-width="15"/>
  <path d="M731.89,874.83s94,50,52,142" fill="none" stroke="#000" stroke-linecap="round" stroke-linejoin="round" stroke-width="15"/>
  <line x1="763.39" y1="1242.33" x2="1118.39" y2="1242.33" fill="none" stroke="#000" stroke-linecap="round" stroke-linejoin="round" stroke-width="15"/>
</svg>