<?xml version="1.0" encoding="UTF-8"?>
<svg id="_레이어_1" data-name="레이어_1" xmlns="http://www.w3.org/2000/svg" xmlns:xlink="http://www.w3.org/1999/xlink" viewBox="0 0 2281 1920">
  <defs>
    <radialGradient id="_무제_그라디언트_25" data-name="무제 그라디언트 25" cx="655.54" cy="884.6" fx="655.54" fy="884.6" r="138.16" gradientUnits="userSpaceOnUse">
      <stop offset="0" stop-color="#ff3e4e"/>
      <stop offset=".17" stop-color="#ff3e4e" stop-opacity=".99"/>
      <stop offset=".3" stop-color="#ff3e4e" stop-opacity=".95"/>
      <stop offset=".42" stop-color="#ff3e4e" stop-opacity=".88"/>
      <stop offset=".53" stop-color="#ff3e4e" stop-opacity=".79"/>
      <stop offset=".63" stop-color="#ff3e4e" stop-opacity=".67"/>
      <stop offset=".74" stop-color="#ff3e4e" stop-opacity=".52"/>
      <stop offset=".84" stop-color="#ff3e4e" stop-opacity=".35"/>
      <stop offset=".93" stop-color="#ff3e4e" stop-opacity=".16"/>
      <stop offset="1" stop-color="#ff3e4e" stop-opacity="0"/>
    </radialGradient>
    <radialGradient id="_무제_그라디언트_25-2" data-name="무제 그라디언트 25" cx="1211.1" cy="746.44" fx="1211.1" fy="746.44" xlink:href="#_무제_그라디언트_25"/>
    <radialGradient id="_무제_그라디언트_25-3" data-name="무제 그라디언트 25" cx="23.55" cy="1149.64" fx="23.55" fy="1149.64" r="52.54" gradientTransform="translate(946.12 -403.46) scale(1.37 1)" xlink:href="#_무제_그라디언트_25"/>
  </defs>
  <g>
    <path d="M661.46,214.68L480.92,38.23c-142.38-40.63-219.04,21.45-224.93,25.64-5.89,4.19-85.34,59.23-97.94,204.14l110.18,234.18s39.7-109.92,164.63-197.3c139.71-89.17,228.61-90.22,228.61-90.22Z" fill="#a2d6ac" stroke="#000" stroke-miterlimit="10" stroke-width="13"/>
    <path d="M515.61,246.07l170.49-47.84,58.3-8.25,92.09,3.01,119.15,25.03,65.08,32.2,64.22,41.84,44.76,51.57s65.19,65.19,64.22,68.11c-.97,2.92,18.92,37.15,20.65,38.52,1.73,1.37,29.51,51.93,29.51,51.93l11.83,54.7,19.14,39.44,43.83,75.4,26.81,48.43,19.85,65.93,5.43,66.99,44.63,7.8,75,11,62,13,64,13,80,13,58,4,52-8s19-5,28,8c.87,1.26,6.03,47.05,7,49s-22.08,64.08-25,67-45.97,51.14-45,56c.97,4.86-42,34-42,34l-45,28-58,27-59,21-87.46,11.33-68.72,4.74-64.31-10.79-40.58-14.6,59.49,80.31,39.8,103.34,33.28,127.32,43.57,91.67-3.64,43.46-28.15,33.14-43.89,12.69-51.57,7.78-49.62-9.73-40.18-6.92-71.34-27.54-70.93-48.05-71.99-81.05-44.63-74.51-26.08-57.27-3.71,37.51,7.89,112.96-25.41,163.36-53.51,116.76-75.39,69.46-46.23,13.25-31.9-24.34-54.83-120.13-67.08-113.74-17.82-79.63,1.35-107.77-35.03,52.54-72.97,88.54-100.21,77.84-87.57,36-106.74,11.94-82.98-5.45-69.08-25.94s-11.03-41.62-12.32-43.68c-1.3-2.05,12.32-41.95,12.32-41.95l63.73-49.13,56.6-76.18,16.53-77.49,28.54-71.98,53.29-68.88,67.91-58.98-67.16-80.35-66.12-137.97-25.32-103.31-7.67-151.09,43.35-180.98,45.99-99.04,77.99-90.51,85.62-65.65,82.9-42.1Z" fill="#ff606d"/>
    <ellipse cx="784.81" cy="529.19" rx="20.3" ry="30.18" transform="translate(95.57 1177.98) rotate(-77.26)" fill="none" stroke="#000" stroke-miterlimit="10" stroke-width="13"/>
    <ellipse cx="1035.59" cy="478.57" rx="30.18" ry="20.3" transform="translate(-29.76 886.62) rotate(-45.76)" fill="none" stroke="#000" stroke-miterlimit="10" stroke-width="13"/>
    <path d="M1229.91,1076.65s179.01-155.08,137.38-293.5c-41.63-138.42-99.92-174.85-119.69-261.24-19.77-86.39-197.75-385.09-558.9-323.68-361.15,61.41-477.72,291.42-502.7,515.19-24.98,223.77,84.3,419.44,162.36,479.8" fill="none" stroke="#000" stroke-linecap="round" stroke-linejoin="round" stroke-width="13"/>
    <path d="M1065.46,1160.96s112.4-72.85,207.64,0c95.23,72.85,117.09,142.59,143.11,238.34,26.02,95.75,40.59,142.59,61.41,183.18,20.82,40.59,0,91.59-72.85,99.92-72.85,8.33-199.83-7.29-295.58-103.04-95.75-95.75-125.93-203.99-125.93-203.99" fill="none" stroke="#000" stroke-linecap="round" stroke-linejoin="round" stroke-width="13"/>
    <path d="M1001.98,1259.83s-30.18,65.57-16.65,198.79c13.53,133.22-28.1,295.58-96.79,375.72-68.69,80.14-120.73,66.61-138.42,28.1-17.69-38.51-33.31-96.79-89.51-172.77-56.2-75.98-59.32-215.44-27.06-309.11,32.26-93.67,108.24-168.61,193.59-157.16" fill="none" stroke="#000" stroke-linecap="round" stroke-linejoin="round" stroke-width="13"/>
    <path d="M638.74,1217.16s-154.04-134.26-311.19-4.16-122.79,218.91-145.18,261.41-80.24,98.84-100.45,113.27c-29.14,20.82-38.51,36.43-28.1,79.1,7.66,31.39,71.68,52.64,160.28,49.96,34.35-1.04,191.37-7.56,304.95-142.59,93.67-111.36,99.92-136.34,99.92-136.34" fill="none" stroke="#000" stroke-linecap="round" stroke-linejoin="round" stroke-width="13"/>
    <path d="M851.31,657.31c-3.26-19.07-22.57-20.37-22.57-20.37h-196.41s-19.31,1.3-22.57,20.37c-3.25,19.06,20.87,111.68,120.61,111.68h0c.05,0,.11,0,.16,0s.11,0,.16,0h0c94.88,0,123.86-92.63,120.61-111.69Z" fill="#fff" stroke="#000" stroke-miterlimit="10" stroke-width="9"/>
    <path d="M820.91,674.98c-2.25-11.57-15.61-12.36-15.61-12.36h-135.86s-13.36.79-15.61,12.36c-2.25,11.56,14.43,67.74,83.43,67.74h0s.07,0,.11,0,.07,0,.11,0h0c65.63,0,85.68-56.18,83.43-67.74Z"/>
    <circle cx="796.86" cy="681.52" r="25.69" fill="#fff"/>
    <path d="M1205.47,492.63c-11.35-12.89-26.54-4.86-26.54-4.86l-74.04,45.71-.24.15-74.04,45.71s-13.98,9.99-7.54,25.91c6.43,15.91,67.83,74.61,143.15,28.1h0s.08-.05.12-.07.08-.05.12-.07h0c71.65-44.24,50.34-127.7,39-140.58Z" fill="#fff" stroke="#000" stroke-miterlimit="10" stroke-width="9"/>
    <path d="M1190.75,520.16c-7.09-7.69-17.55-2.05-17.55-2.05l-51.21,31.62-.17.1-51.21,31.62s-9.72,6.82-6.03,16.61c3.69,9.78,42.48,44.42,94.58,12.25h0s.06-.03.08-.05.06-.03.08-.05h0c49.56-30.6,38.51-82.37,31.42-90.05Z"/>
    <circle cx="1175.64" cy="536.3" r="22.8" fill="#fff"/>
    <path d="M921.91,488.19s9.19,37.64-37.47,54.7" fill="none" stroke="#000" stroke-linecap="round" stroke-miterlimit="10" stroke-width="13"/>
    <path d="M952.1,511.91s7.29,11.45,20.82,17.69" fill="none" stroke="#000" stroke-linecap="round" stroke-miterlimit="10" stroke-width="13"/>
    <circle cx="655.54" cy="884.6" r="138.16" fill="url(#_무제_그라디언트_25)"/>
    <circle cx="600.08" cy="811.62" r="11.68" fill="#fff"/>
    <circle cx="1211.1" cy="746.44" r="138.16" fill="url(#_무제_그라디언트_25-2)"/>
    <circle cx="1239.32" cy="651.09" r="11.68" fill="#fff"/>
    <path d="M623.13,893.47s48.93,36.77,26.03,62.62c-22.9,25.85-60.37,26.89-60.37,26.89" fill="none" stroke="#000" stroke-linecap="round" stroke-linejoin="round" stroke-width="9"/>
    <path d="M667.71,877.55s-5.72,51.31,22.2,60.67c27.93,9.37,52.04-30.34,52.04-30.34" fill="none" stroke="#000" stroke-linecap="round" stroke-linejoin="round" stroke-width="9"/>
    <path d="M741.95,954.01s-33.96-4.68-37.36,17.35c-3.4,22.03,11.17,38.68,22.62,47.01" fill="none" stroke="#000" stroke-linecap="round" stroke-linejoin="round" stroke-width="9"/>
    <path d="M622.02,1013.69s24.77-41.11,45.2-30.7c20.43,10.41,15.23,55.16,15.23,55.16" fill="none" stroke="#000" stroke-linecap="round" stroke-linejoin="round" stroke-width="9"/>
    <path d="M773.6,1006.69s9.43,21.29-2.97,25.63c-12.4,4.34-25.04-2.27-25.04-2.27" fill="none" stroke="#000" stroke-linecap="round" stroke-linejoin="round" stroke-width="6"/>
    <path d="M791.37,1009.67s-11.42,15.98-3.88,24.27c7.54,8.29,22.91-.42,22.91-.42" fill="none" stroke="#000" stroke-linecap="round" stroke-linejoin="round" stroke-width="6"/>
    <path d="M801.84,1048.84s-10.41-7.86-15.63-1.17c-5.22,6.69-3.47,14.92-1.21,19.81" fill="none" stroke="#000" stroke-linecap="round" stroke-linejoin="round" stroke-width="6"/>
    <path d="M750.94,1046.41s15.85-9.06,20.71-1.81c4.86,7.25-5.17,21.15-5.17,21.15" fill="none" stroke="#000" stroke-linecap="round" stroke-linejoin="round" stroke-width="6"/>
    <ellipse cx="978.39" cy="746.18" rx="72" ry="52.54" transform="translate(-205.67 411.48) rotate(-21.55)" fill="url(#_무제_그라디언트_25-3)"/>
    <path d="M959.3,849.76s21.86-7.29,29.14-39.55c7.29-32.26,39.55-36.43,55.7-26.19,21.59,13.68,37.97,59.5-30.72,107.37,0,0,25.47-22.41,52.56,5.2,26.54,27.06,13.01,56.2,11.97,58.28-2.71,5.43-13.53,23.94-40.59,20.82-27.06-3.12-16.65-21.86-57.24-19.77" fill="none" stroke="#000" stroke-linecap="round" stroke-linejoin="round" stroke-width="13"/>
    <path d="M1370.96,853.08s258.95,44.46,308.13,54.3c75,15,136-5,136-5,0,0,22-8,26,45s-46.29,187.1-293,253c-146,39-241.58-12.82-241.58-12.82" fill="none" stroke="#000" stroke-linecap="round" stroke-linejoin="round" stroke-width="13"/>
  </g>
  <g>
    <path d="M2215.3,849.75c-56.23-204.54-230.16-98.95-230.16-98.95,22.6-16.09-3.48-112.37-106.73-76.21-132.71,46.48-171.34,174.26-171.34,174.26l-63.05,17.33c-11.41,3.14-18.12,14.93-14.98,26.34l67.65,246.09c3.14,11.41,14.93,18.12,26.34,14.98l63.05-17.33c116.03,116.99,252.23,65.96,252.23,65.96,159.2,22.04,233.21-147.94,176.98-352.47Z" fill="#af3737" stroke="#000" stroke-linecap="round" stroke-linejoin="round" stroke-width="15"/>
    <path d="M2023.02,1175.57s-100.28-213.91-17.34-364.85" fill="none" stroke="#000" stroke-linecap="round" stroke-linejoin="round" stroke-width="15"/>
    <path d="M1959.32,776.79s-16.64,74.2-87.95,62.69" fill="none" stroke="#000" stroke-linecap="round" stroke-linejoin="round" stroke-width="15"/>
    <line x1="1712.2" y1="868.06" x2="1779.4" y2="1112.54" fill="none" stroke="#000" stroke-linecap="round" stroke-linejoin="round" stroke-width="15"/>
  </g>
</svg>