<?xml version="1.0" encoding="UTF-8"?>
<svg id="_레이어_1" data-name="레이어 1" xmlns="http://www.w3.org/2000/svg" xmlns:xlink="http://www.w3.org/1999/xlink" viewBox="0 0 1920 1920">
  <defs>
    <radialGradient id="_무제_그라디언트_18" data-name="무제 그라디언트 18" cx="665.83" cy="876.74" fx="665.83" fy="876.74" r="142" gradientUnits="userSpaceOnUse">
      <stop offset="0" stop-color="#ffbac0"/>
      <stop offset=".17" stop-color="#ffbac0" stop-opacity=".99"/>
      <stop offset=".3" stop-color="#ffbac0" stop-opacity=".95"/>
      <stop offset=".42" stop-color="#ffbac0" stop-opacity=".88"/>
      <stop offset=".53" stop-color="#ffbac0" stop-opacity=".79"/>
      <stop offset=".63" stop-color="#ffbac0" stop-opacity=".67"/>
      <stop offset=".74" stop-color="#ffbac0" stop-opacity=".52"/>
      <stop offset=".84" stop-color="#ffbac0" stop-opacity=".35"/>
      <stop offset=".93" stop-color="#ffbac0" stop-opacity=".16"/>
      <stop offset="1" stop-color="#ffbac0" stop-opacity="0"/>
    </radialGradient>
    <radialGradient id="_무제_그라디언트_18-2" data-name="무제 그라디언트 18" cx="465.38" cy="1583.47" fx="465.38" fy="1583.47" r="54" gradientTransform="translate(293.08 -900.73) scale(1.37 1)" xlink:href="#_무제_그라디언트_18"/>
    <radialGradient id="_무제_그라디언트_18-3" data-name="무제 그라디언트 18" cx="1276.83" cy="753.74" fx="1276.83" fy="753.74" r="142" xlink:href="#_무제_그라디언트_18"/>
  </defs>
  <g>
    <path d="M560.13,201.08l-56.4,48.58-41.42,49.67-41.13,70.69-23.41,59.95-20.57,90.07-5.95,44.37v55.83l10.86,70.45,17.56,53.81,17.16,58.25s1,59,0,63-11.46,50.87-10.23,57.94c1.23,7.06,6.23,45.38,3.23,52.72-3,7.34,21.25,60.27,21.62,63.8.38,3.54,34.24,50.87,34.24,50.87l48.92,36.52-47.28,11.65-57.28,32.96-43.02,34.82-30.7,26.22-37.27,42.62-61.6,93.99-36.91,106.76-30.22,75.63-28,39v42.5l23.94,29.8,78.22,10.88,126.75-45.68,193.37-120.54,130.71-121.96,12.19-9.39-31.27,86.84-9.92,87.55,13.16,76.69,9.43,79.9,4.39,67.75,14.22,35.06,24.31,12.63,78.5-12.02,57.48-22.83,63.02-57.67,51.25-70.32,49.55-94.03,30.86-103.58,7.49-70.39,15.3,35.32,62.3,118.3,52.62,64.16,77.41,70.78,75.83,48.18,63.78,27.05,56.6,9.35,34.28-10.8,25.97-37.82,10.25-63.68-10-75-16.96-81.54-19.04-70.46,4.5-7.5,14,9,63.78,48.5,103.45,52.2,62.9,6.96,30.98-18.42,2.89-37.24-13-43.12-19.75-71.07-16.05-89.6-25.52-87.19-42.86-68.57-48.07-47.21-67.2-42.83-76.57-20.97-63.94-1.45-50.72,4.44h-30l67.57-48.87,47.3-60.23,29.19-88.53-5.39-88.46-39.44-88.3-17.12-70.72-26.16-138.69-53.29-129.63-88.67-97.66-89.6-54.12-92.24-31.75-60.17-15.01-72.33-3.47h-65.67s-58.33,5-64.33,10-57.34,13.96-59.67,14.98c-2.33,1.02-66.97,25.47-66.97,25.47l-49.36,22.54-48.76,23.05-11.94,8.3" fill="#ffd2d6" stroke-width="0"/>
    <path d="M520.33,1124.17c-86-42.01-127.52-129.11-110-237.04,19-117.02-18.81-135.67-35-227.04-14-79.01-20-516.09,479-557.09,499-41.01,548.5,381.56,554.5,458.58,6,77.01,13.5,50.51,50,157.03,70.24,204.97-160,314.05-160,314.05,0,0,166.5-73.58,300.5,27.5,118,89.01,126,177.03,142,269.04,16,92.02,24,99.02,29,114.02s24,83.01-27,93.02c-51,10-172-50.01-247-131.02" fill="none" stroke="#000" stroke-linecap="round" stroke-linejoin="round" stroke-width="13"/>
    <circle cx="707.33" cy="644.24" r="86" fill="#fff" stroke="#000" stroke-miterlimit="10" stroke-width="8"/>
    <circle cx="707.33" cy="644.24" r="59" stroke-width="0"/>
    <circle cx="744.33" cy="612.24" r="21" fill="#fff" stroke-width="0"/>
    <circle cx="1118.33" cy="561.24" r="86" fill="#fff" stroke="#000" stroke-miterlimit="10" stroke-width="8"/>
    <circle cx="1118.33" cy="561.24" r="59" stroke-width="0"/>
    <circle cx="1155.33" cy="529.24" r="21" fill="#fff" stroke-width="0"/>
    <ellipse cx="647.83" cy="502.24" rx="29" ry="19.5" transform="translate(-158.85 356.62) rotate(-27.55)" fill="none" stroke="#000" stroke-miterlimit="10" stroke-width="13"/>
    <ellipse cx="1098.83" cy="407.24" rx="19.5" ry="29" transform="translate(549.93 1442.6) rotate(-82.41)" fill="none" stroke="#000" stroke-miterlimit="10" stroke-width="13"/>
    <path d="M1186.33,1220.24s160-44,241,57,86,204,99,274,32,157-14,200-167-21-221-60c-51.6-37.27-189.74-154.5-221-319" fill="none" stroke="#000" stroke-linecap="round" stroke-miterlimit="10" stroke-width="13"/>
    <path d="M1057.33,1244.24s42,176-27,325c-69,149-139.29,218.94-220,242-70,20-91,9-91,9,0,0-30-8-30-90s-16.04-116.32-23-179c-7-63,37-239.08,173.5-340.54" fill="none" stroke="#000" stroke-linecap="round" stroke-miterlimit="10" stroke-width="13"/>
    <path d="M750.33,1150.24s-207-86-355,33-172,216-188,270-19,74-38,96-39,52-26,90,97.08,59.06,227.92-10.5c125.08-66.5,255.56-141.52,370.82-313.51" fill="none" stroke="#000" stroke-linecap="round" stroke-miterlimit="10" stroke-width="13"/>
    <path d="M869.25,819.39l-17.21,4.11c.04.33.1.66.17.99,1.15,4.83,6.02,7.82,10.84,6.66,4.18-1,6.98-4.78,6.9-8.92-.21-.78-.41-1.57-.6-2.36-.04-.16-.07-.33-.11-.49Z" fill="none" stroke-width="0"/>
    <path d="M869.03,818.42c-1.82-3.68-6-5.77-10.16-4.77-4.5,1.07-7.4,5.37-6.84,9.86l17.21-4.11c-.08-.32-.15-.65-.22-.97Z" fill="none" stroke-width="0"/>
    <circle cx="665.83" cy="876.74" r="142" fill="url(#_무제_그라디언트_18)" stroke-width="0"/>
    <ellipse cx="930.83" cy="682.74" rx="74" ry="54" transform="translate(-122.39 210.19) rotate(-12.09)" fill="url(#_무제_그라디언트_18-2)" stroke-width="0"/>
    <circle cx="1276.83" cy="753.74" r="142" fill="url(#_무제_그라디언트_18-3)" stroke-width="0"/>
    <circle cx="608.83" cy="801.74" r="12" fill="#fff" stroke-width="0"/>
    <circle cx="1299.83" cy="668.74" r="12" fill="#fff" stroke-width="0"/>
  </g>
  <path d="M942.43,735.19s-143.91,30.26-122.3,120.72c21.61,90.46,126.68,16.01,153.43,9.62,26.75-6.39,153.16,12.77,131.55-77.69-21.61-90.46-162.68-52.64-162.68-52.64Z" fill="#fff6ba" stroke="#000" stroke-linecap="round" stroke-linejoin="round" stroke-width="13"/>
  <path d="M875.69,829.67l13.31,21.33,11,19,32,26,44,4.39,41.33-22.39,19.67-33,5-39,5-20h11.67l16.33,18v32.33l-21.5,48-32.5,31.67-35,14h-37.33l-45.67-13s-14-17-18-20-25.09-28.67-25.09-28.67l-5.13-23.33,2.45-12.59,18.46-2.74Z" fill="#fff6ba" stroke-width="0"/>
  <path d="M1076.8,792.02c-.2-.83-.41-1.65-.62-2.47-3.2-7.68-10.47-12.81-18.6-13.44-2.23-.17-4.52,0-6.81.54-3.99.95-7.46,2.94-10.2,5.6-5.16,5.01-7.74,12.43-6.3,19.93l-.28.07c.04.16.09.32.13.48,9.48,39.69-15.1,79.69-54.78,89.17-38.65,9.23-77.58-13.84-88.35-51.7-.29-1.02-.57-2.04-.82-3.08-.04-.16-.07-.33-.1-.49-.14-.6-.26-1.21-.38-1.81-2.52-6.62-8-11.45-14.53-13.32-3.51-1-7.33-1.15-11.14-.24-2.48.59-4.76,1.59-6.79,2.9-7.37,4.74-11.43,13.63-9.7,22.63l-.26.06c.04.16.07.33.11.49,15.12,63.29,78.9,102.47,142.19,87.36,61.88-14.78,100.71-76.09,88.27-137.96-.28-1.41-.58-2.81-.92-4.22-.04-.16-.08-.32-.12-.48ZM986.55,922.05c-49.21,11.75-98.75-13.39-119.44-57.49-2.99-6.37-5.38-13.13-7.08-20.24-.04-.16-.07-.33-.11-.49l.29-.07c-.56-4.49,2.34-8.78,6.84-9.86,4.16-.99,8.34,1.09,10.16,4.77.15.3.28.61.4.93.11.31.21.63.29.96.15.65.23,1.29.24,1.93,1.52,5.68,3.58,11.08,6.1,16.16,17.62,35.46,58.01,55.47,98.13,45.89,40.21-9.6,67.22-45.85,66.79-85.55-.07-6.37-.84-12.83-2.38-19.29-.04-.16-.08-.32-.12-.48l.31-.07c-.56-4.49,2.34-8.78,6.84-9.86,4.1-.98,8.23,1.04,10.08,4.63.18.34.34.7.47,1.07.11.31.21.63.29.96.18.74.25,1.48.24,2.21,1.33,6.29,2.07,12.58,2.24,18.8,1.38,48.62-31.43,93.34-80.57,105.08Z" stroke-width="0"/>
</svg>