<?xml version="1.0" encoding="UTF-8"?>
<svg id="_레이어_1" data-name="레이어_1" xmlns="http://www.w3.org/2000/svg" viewBox="0 0 1920 1920">
  <path d="M936.73,1337.82l-258.62,135.97c-36.68,19.28-79.55-11.86-72.55-52.71l49.39-287.98c2.78-16.22-2.6-32.77-14.38-44.26l-209.23-203.95c-29.68-28.93-13.3-79.33,27.71-85.28l289.15-42.02c16.29-2.37,30.36-12.59,37.65-27.35l129.31-262.01c18.34-37.16,71.33-37.16,89.67,0l129.31,262.01c7.28,14.76,21.36,24.99,37.65,27.35l289.15,42.02c41.01,5.96,57.39,56.36,27.71,85.28l-209.23,203.95c-11.78,11.49-17.16,28.04-14.38,44.26l49.39,287.98c7.01,40.85-35.87,71.99-72.55,52.71l-258.62-135.97c-14.57-7.66-31.97-7.66-46.53,0Z" fill="#ffce00" stroke="#000" stroke-miterlimit="10" stroke-width="15"/>
  <path d="M892.5,668.5l-58,109s-17,32-45,38c-30.31,6.5-133,13-133,13" fill="none" stroke="#fff" stroke-linecap="round" stroke-miterlimit="10" stroke-width="35"/>
  <circle cx="595" cy="835" r="20.31" fill="#fff"/>
</svg>